<mxfile host="app.diagrams.net" modified="2024-05-21T11:08:07.635Z" agent="Mozilla/5.0 (Windows NT 10.0; Win64; x64) AppleWebKit/537.36 (KHTML, like Gecko) Chrome/125.0.0.0 Safari/537.36" etag="cmw-uGeO7KNGDahkUxiE" version="24.4.4" type="device">
  <diagram name="Page-1" id="12hEH8jjg-TufrVYopuD">
    <mxGraphModel dx="2173" dy="1853" grid="1" gridSize="10" guides="1" tooltips="1" connect="1" arrows="1" fold="1" page="1" pageScale="1" pageWidth="850" pageHeight="1100" background="#ffffff" math="0" shadow="0">
      <root>
        <mxCell id="0" />
        <mxCell id="1" parent="0" />
        <mxCell id="6QipHt0BfIRYhcp03Fun-1" value="Admin" style="rounded=1;whiteSpace=wrap;html=1;" vertex="1" parent="1">
          <mxGeometry x="240" y="170" width="120" height="60" as="geometry" />
        </mxCell>
        <mxCell id="6QipHt0BfIRYhcp03Fun-2" value="&lt;b&gt;Admin ID (INT)(PK)&lt;/b&gt;" style="ellipse;whiteSpace=wrap;html=1;" vertex="1" parent="1">
          <mxGeometry x="50" width="120" height="60" as="geometry" />
        </mxCell>
        <mxCell id="6QipHt0BfIRYhcp03Fun-3" value="Admin Name(STRING NOT NULL)" style="ellipse;whiteSpace=wrap;html=1;" vertex="1" parent="1">
          <mxGeometry x="40" y="80" width="110" height="60" as="geometry" />
        </mxCell>
        <mxCell id="6QipHt0BfIRYhcp03Fun-4" value="Admin Phone(STRING NOT NULL UNIQUE)" style="ellipse;whiteSpace=wrap;html=1;" vertex="1" parent="1">
          <mxGeometry x="25" y="150" width="120" height="70" as="geometry" />
        </mxCell>
        <mxCell id="6QipHt0BfIRYhcp03Fun-5" value="Admin Email(STRING NOT NULL UNIQUE)" style="ellipse;whiteSpace=wrap;html=1;" vertex="1" parent="1">
          <mxGeometry x="25" y="230" width="120" height="60" as="geometry" />
        </mxCell>
        <mxCell id="6QipHt0BfIRYhcp03Fun-6" value="" style="endArrow=classic;html=1;rounded=0;exitX=1;exitY=0.5;exitDx=0;exitDy=0;entryX=0;entryY=0;entryDx=0;entryDy=0;" edge="1" parent="1" source="6QipHt0BfIRYhcp03Fun-2" target="6QipHt0BfIRYhcp03Fun-1">
          <mxGeometry width="50" height="50" relative="1" as="geometry">
            <mxPoint x="380" y="260" as="sourcePoint" />
            <mxPoint x="430" y="210" as="targetPoint" />
          </mxGeometry>
        </mxCell>
        <mxCell id="6QipHt0BfIRYhcp03Fun-7" value="" style="endArrow=classic;html=1;rounded=0;entryX=0;entryY=0.25;entryDx=0;entryDy=0;" edge="1" parent="1" source="6QipHt0BfIRYhcp03Fun-3" target="6QipHt0BfIRYhcp03Fun-1">
          <mxGeometry width="50" height="50" relative="1" as="geometry">
            <mxPoint x="380" y="260" as="sourcePoint" />
            <mxPoint x="430" y="210" as="targetPoint" />
          </mxGeometry>
        </mxCell>
        <mxCell id="6QipHt0BfIRYhcp03Fun-8" value="" style="endArrow=classic;html=1;rounded=0;entryX=0;entryY=0.5;entryDx=0;entryDy=0;exitX=1;exitY=0.5;exitDx=0;exitDy=0;" edge="1" parent="1" source="6QipHt0BfIRYhcp03Fun-4" target="6QipHt0BfIRYhcp03Fun-1">
          <mxGeometry width="50" height="50" relative="1" as="geometry">
            <mxPoint x="150" y="230" as="sourcePoint" />
            <mxPoint x="430" y="210" as="targetPoint" />
          </mxGeometry>
        </mxCell>
        <mxCell id="6QipHt0BfIRYhcp03Fun-9" value="" style="endArrow=classic;html=1;rounded=0;exitX=1;exitY=0.378;exitDx=0;exitDy=0;exitPerimeter=0;entryX=0;entryY=1;entryDx=0;entryDy=0;" edge="1" parent="1" source="6QipHt0BfIRYhcp03Fun-5" target="6QipHt0BfIRYhcp03Fun-1">
          <mxGeometry width="50" height="50" relative="1" as="geometry">
            <mxPoint x="380" y="260" as="sourcePoint" />
            <mxPoint x="430" y="210" as="targetPoint" />
          </mxGeometry>
        </mxCell>
        <mxCell id="6QipHt0BfIRYhcp03Fun-10" value="Users" style="rounded=1;whiteSpace=wrap;html=1;" vertex="1" parent="1">
          <mxGeometry x="550" y="170" width="120" height="60" as="geometry" />
        </mxCell>
        <mxCell id="6QipHt0BfIRYhcp03Fun-11" value="&lt;b&gt;User Id(INT)(PK)&lt;/b&gt;" style="ellipse;whiteSpace=wrap;html=1;" vertex="1" parent="1">
          <mxGeometry x="720" y="30" width="120" height="80" as="geometry" />
        </mxCell>
        <mxCell id="6QipHt0BfIRYhcp03Fun-12" value="User Name(STRING NOT NULL)" style="ellipse;whiteSpace=wrap;html=1;" vertex="1" parent="1">
          <mxGeometry x="740" y="120" width="120" height="80" as="geometry" />
        </mxCell>
        <mxCell id="6QipHt0BfIRYhcp03Fun-13" value="User Phone(STRING NOT NULL UNIQUE)" style="ellipse;whiteSpace=wrap;html=1;" vertex="1" parent="1">
          <mxGeometry x="740" y="210" width="120" height="80" as="geometry" />
        </mxCell>
        <mxCell id="6QipHt0BfIRYhcp03Fun-14" value="User Email(STRING NOT NULL UNIQUE)" style="ellipse;whiteSpace=wrap;html=1;" vertex="1" parent="1">
          <mxGeometry x="740" y="300" width="120" height="80" as="geometry" />
        </mxCell>
        <mxCell id="6QipHt0BfIRYhcp03Fun-15" value="" style="endArrow=classic;html=1;rounded=0;exitX=0.029;exitY=0.615;exitDx=0;exitDy=0;exitPerimeter=0;" edge="1" parent="1" source="6QipHt0BfIRYhcp03Fun-11" target="6QipHt0BfIRYhcp03Fun-10">
          <mxGeometry width="50" height="50" relative="1" as="geometry">
            <mxPoint x="660" y="290" as="sourcePoint" />
            <mxPoint x="710" y="240" as="targetPoint" />
          </mxGeometry>
        </mxCell>
        <mxCell id="6QipHt0BfIRYhcp03Fun-16" value="" style="endArrow=classic;html=1;rounded=0;exitX=0;exitY=0.5;exitDx=0;exitDy=0;" edge="1" parent="1" source="6QipHt0BfIRYhcp03Fun-12" target="6QipHt0BfIRYhcp03Fun-10">
          <mxGeometry width="50" height="50" relative="1" as="geometry">
            <mxPoint x="660" y="290" as="sourcePoint" />
            <mxPoint x="710" y="240" as="targetPoint" />
          </mxGeometry>
        </mxCell>
        <mxCell id="6QipHt0BfIRYhcp03Fun-17" value="" style="endArrow=classic;html=1;rounded=0;exitX=0;exitY=0.5;exitDx=0;exitDy=0;entryX=1;entryY=0.75;entryDx=0;entryDy=0;" edge="1" parent="1" source="6QipHt0BfIRYhcp03Fun-13" target="6QipHt0BfIRYhcp03Fun-10">
          <mxGeometry width="50" height="50" relative="1" as="geometry">
            <mxPoint x="660" y="290" as="sourcePoint" />
            <mxPoint x="710" y="240" as="targetPoint" />
          </mxGeometry>
        </mxCell>
        <mxCell id="6QipHt0BfIRYhcp03Fun-18" value="" style="endArrow=classic;html=1;rounded=0;exitX=0.016;exitY=0.389;exitDx=0;exitDy=0;exitPerimeter=0;entryX=0.864;entryY=1.071;entryDx=0;entryDy=0;entryPerimeter=0;" edge="1" parent="1" source="6QipHt0BfIRYhcp03Fun-14" target="6QipHt0BfIRYhcp03Fun-10">
          <mxGeometry width="50" height="50" relative="1" as="geometry">
            <mxPoint x="660" y="290" as="sourcePoint" />
            <mxPoint x="710" y="240" as="targetPoint" />
          </mxGeometry>
        </mxCell>
        <mxCell id="6QipHt0BfIRYhcp03Fun-19" value="Admin Authentication" style="rounded=1;whiteSpace=wrap;html=1;" vertex="1" parent="1">
          <mxGeometry x="240" y="-200" width="120" height="60" as="geometry" />
        </mxCell>
        <mxCell id="6QipHt0BfIRYhcp03Fun-20" value="&lt;b&gt;Admin Id(INT)(FK)&lt;/b&gt;" style="ellipse;whiteSpace=wrap;html=1;" vertex="1" parent="1">
          <mxGeometry x="30" y="-340" width="120" height="80" as="geometry" />
        </mxCell>
        <mxCell id="6QipHt0BfIRYhcp03Fun-21" value="Password(BYTE ARRAY)" style="ellipse;whiteSpace=wrap;html=1;" vertex="1" parent="1">
          <mxGeometry x="30" y="-250" width="120" height="80" as="geometry" />
        </mxCell>
        <mxCell id="6QipHt0BfIRYhcp03Fun-22" value="Password Hash Key(BYTE ARRAY)" style="ellipse;whiteSpace=wrap;html=1;" vertex="1" parent="1">
          <mxGeometry x="25" y="-160" width="120" height="80" as="geometry" />
        </mxCell>
        <mxCell id="6QipHt0BfIRYhcp03Fun-23" value="" style="endArrow=classic;html=1;rounded=0;exitX=0.978;exitY=0.634;exitDx=0;exitDy=0;exitPerimeter=0;entryX=0;entryY=0.5;entryDx=0;entryDy=0;" edge="1" parent="1" source="6QipHt0BfIRYhcp03Fun-20" target="6QipHt0BfIRYhcp03Fun-19">
          <mxGeometry width="50" height="50" relative="1" as="geometry">
            <mxPoint x="350" y="550" as="sourcePoint" />
            <mxPoint x="400" y="500" as="targetPoint" />
          </mxGeometry>
        </mxCell>
        <mxCell id="6QipHt0BfIRYhcp03Fun-24" value="" style="endArrow=classic;html=1;rounded=0;entryX=0;entryY=0.75;entryDx=0;entryDy=0;" edge="1" parent="1" source="6QipHt0BfIRYhcp03Fun-21" target="6QipHt0BfIRYhcp03Fun-19">
          <mxGeometry width="50" height="50" relative="1" as="geometry">
            <mxPoint x="350" y="550" as="sourcePoint" />
            <mxPoint x="400" y="500" as="targetPoint" />
          </mxGeometry>
        </mxCell>
        <mxCell id="6QipHt0BfIRYhcp03Fun-25" value="" style="endArrow=classic;html=1;rounded=0;entryX=0.25;entryY=1;entryDx=0;entryDy=0;" edge="1" parent="1" source="6QipHt0BfIRYhcp03Fun-22" target="6QipHt0BfIRYhcp03Fun-19">
          <mxGeometry width="50" height="50" relative="1" as="geometry">
            <mxPoint x="350" y="550" as="sourcePoint" />
            <mxPoint x="400" y="500" as="targetPoint" />
          </mxGeometry>
        </mxCell>
        <mxCell id="6QipHt0BfIRYhcp03Fun-26" value="Employee" style="rounded=1;whiteSpace=wrap;html=1;" vertex="1" parent="1">
          <mxGeometry x="540" y="490" width="120" height="60" as="geometry" />
        </mxCell>
        <mxCell id="6QipHt0BfIRYhcp03Fun-27" value="HAS" style="rhombus;whiteSpace=wrap;html=1;" vertex="1" parent="1">
          <mxGeometry x="260" y="-40" width="80" height="80" as="geometry" />
        </mxCell>
        <mxCell id="6QipHt0BfIRYhcp03Fun-30" value="&lt;b&gt;1&lt;/b&gt;" style="text;html=1;align=center;verticalAlign=middle;whiteSpace=wrap;rounded=0;" vertex="1" parent="1">
          <mxGeometry x="280" y="140" width="60" height="30" as="geometry" />
        </mxCell>
        <mxCell id="6QipHt0BfIRYhcp03Fun-31" value="&lt;b&gt;1&lt;/b&gt;" style="text;html=1;align=center;verticalAlign=middle;whiteSpace=wrap;rounded=0;" vertex="1" parent="1">
          <mxGeometry x="280" y="-135" width="60" height="30" as="geometry" />
        </mxCell>
        <mxCell id="6QipHt0BfIRYhcp03Fun-32" value="User Authentication" style="rounded=1;whiteSpace=wrap;html=1;" vertex="1" parent="1">
          <mxGeometry x="570" y="-230" width="120" height="60" as="geometry" />
        </mxCell>
        <mxCell id="6QipHt0BfIRYhcp03Fun-33" value="&lt;b&gt;User Id(INT)(FK)&lt;/b&gt;" style="ellipse;whiteSpace=wrap;html=1;" vertex="1" parent="1">
          <mxGeometry x="700" y="-400" width="120" height="80" as="geometry" />
        </mxCell>
        <mxCell id="6QipHt0BfIRYhcp03Fun-34" value="Password(BYTE ARRAY)" style="ellipse;whiteSpace=wrap;html=1;" vertex="1" parent="1">
          <mxGeometry x="740" y="-320" width="120" height="80" as="geometry" />
        </mxCell>
        <mxCell id="6QipHt0BfIRYhcp03Fun-35" value="Password Hash Key(BYTE ARRAY)" style="ellipse;whiteSpace=wrap;html=1;" vertex="1" parent="1">
          <mxGeometry x="760" y="-240" width="120" height="80" as="geometry" />
        </mxCell>
        <mxCell id="6QipHt0BfIRYhcp03Fun-36" value="" style="endArrow=classic;html=1;rounded=0;exitX=0.078;exitY=0.794;exitDx=0;exitDy=0;exitPerimeter=0;entryX=0.5;entryY=0;entryDx=0;entryDy=0;" edge="1" parent="1" source="6QipHt0BfIRYhcp03Fun-33" target="6QipHt0BfIRYhcp03Fun-32">
          <mxGeometry width="50" height="50" relative="1" as="geometry">
            <mxPoint x="350" y="-110" as="sourcePoint" />
            <mxPoint x="400" y="-160" as="targetPoint" />
          </mxGeometry>
        </mxCell>
        <mxCell id="6QipHt0BfIRYhcp03Fun-37" value="" style="endArrow=classic;html=1;rounded=0;exitX=0;exitY=0.5;exitDx=0;exitDy=0;entryX=0.75;entryY=0;entryDx=0;entryDy=0;" edge="1" parent="1" source="6QipHt0BfIRYhcp03Fun-34" target="6QipHt0BfIRYhcp03Fun-32">
          <mxGeometry width="50" height="50" relative="1" as="geometry">
            <mxPoint x="350" y="-110" as="sourcePoint" />
            <mxPoint x="400" y="-160" as="targetPoint" />
          </mxGeometry>
        </mxCell>
        <mxCell id="6QipHt0BfIRYhcp03Fun-38" value="" style="endArrow=classic;html=1;rounded=0;entryX=1;entryY=0.75;entryDx=0;entryDy=0;" edge="1" parent="1" source="6QipHt0BfIRYhcp03Fun-35" target="6QipHt0BfIRYhcp03Fun-32">
          <mxGeometry width="50" height="50" relative="1" as="geometry">
            <mxPoint x="350" y="-110" as="sourcePoint" />
            <mxPoint x="400" y="-160" as="targetPoint" />
          </mxGeometry>
        </mxCell>
        <mxCell id="6QipHt0BfIRYhcp03Fun-39" value="HAS" style="rhombus;whiteSpace=wrap;html=1;" vertex="1" parent="1">
          <mxGeometry x="590" y="-60" width="80" height="80" as="geometry" />
        </mxCell>
        <mxCell id="6QipHt0BfIRYhcp03Fun-43" value="&lt;b&gt;1&lt;/b&gt;" style="text;html=1;align=center;verticalAlign=middle;whiteSpace=wrap;rounded=0;" vertex="1" parent="1">
          <mxGeometry x="580" y="-165" width="60" height="30" as="geometry" />
        </mxCell>
        <mxCell id="6QipHt0BfIRYhcp03Fun-44" value="&lt;b&gt;1&lt;/b&gt;" style="text;html=1;align=center;verticalAlign=middle;whiteSpace=wrap;rounded=0;" vertex="1" parent="1">
          <mxGeometry x="580" y="135" width="60" height="30" as="geometry" />
        </mxCell>
        <mxCell id="6QipHt0BfIRYhcp03Fun-45" value="State(STRING)" style="ellipse;whiteSpace=wrap;html=1;" vertex="1" parent="1">
          <mxGeometry x="770" y="-150" width="120" height="80" as="geometry" />
        </mxCell>
        <mxCell id="6QipHt0BfIRYhcp03Fun-46" value="" style="endArrow=classic;html=1;rounded=0;exitX=0;exitY=0.5;exitDx=0;exitDy=0;" edge="1" parent="1" source="6QipHt0BfIRYhcp03Fun-45" target="6QipHt0BfIRYhcp03Fun-32">
          <mxGeometry width="50" height="50" relative="1" as="geometry">
            <mxPoint x="350" y="-110" as="sourcePoint" />
            <mxPoint x="400" y="-160" as="targetPoint" />
          </mxGeometry>
        </mxCell>
        <mxCell id="6QipHt0BfIRYhcp03Fun-47" value="&quot;Active&quot;" style="ellipse;whiteSpace=wrap;html=1;" vertex="1" parent="1">
          <mxGeometry x="950" y="-215" width="120" height="80" as="geometry" />
        </mxCell>
        <mxCell id="6QipHt0BfIRYhcp03Fun-48" value="&quot;Disabled" style="ellipse;whiteSpace=wrap;html=1;" vertex="1" parent="1">
          <mxGeometry x="960" y="-135" width="120" height="80" as="geometry" />
        </mxCell>
        <mxCell id="6QipHt0BfIRYhcp03Fun-49" value="" style="endArrow=classic;html=1;rounded=0;exitX=0.95;exitY=0.2;exitDx=0;exitDy=0;exitPerimeter=0;" edge="1" parent="1" source="6QipHt0BfIRYhcp03Fun-45" target="6QipHt0BfIRYhcp03Fun-47">
          <mxGeometry width="50" height="50" relative="1" as="geometry">
            <mxPoint x="750" y="-110" as="sourcePoint" />
            <mxPoint x="800" y="-160" as="targetPoint" />
          </mxGeometry>
        </mxCell>
        <mxCell id="6QipHt0BfIRYhcp03Fun-50" value="" style="endArrow=classic;html=1;rounded=0;exitX=1;exitY=0.5;exitDx=0;exitDy=0;entryX=0.006;entryY=0.345;entryDx=0;entryDy=0;entryPerimeter=0;" edge="1" parent="1" source="6QipHt0BfIRYhcp03Fun-45" target="6QipHt0BfIRYhcp03Fun-48">
          <mxGeometry width="50" height="50" relative="1" as="geometry">
            <mxPoint x="750" y="-110" as="sourcePoint" />
            <mxPoint x="800" y="-160" as="targetPoint" />
          </mxGeometry>
        </mxCell>
        <mxCell id="6QipHt0BfIRYhcp03Fun-52" value="&lt;b&gt;Employee Id(INT)(PK)&lt;/b&gt;" style="ellipse;whiteSpace=wrap;html=1;" vertex="1" parent="1">
          <mxGeometry x="750" y="390" width="120" height="80" as="geometry" />
        </mxCell>
        <mxCell id="6QipHt0BfIRYhcp03Fun-53" value="Employee Name(STRING NOT NULL)" style="ellipse;whiteSpace=wrap;html=1;" vertex="1" parent="1">
          <mxGeometry x="910" y="420" width="120" height="80" as="geometry" />
        </mxCell>
        <mxCell id="6QipHt0BfIRYhcp03Fun-54" value="Employee Phone(STRING NOT NULL UNIQUE)" style="ellipse;whiteSpace=wrap;html=1;" vertex="1" parent="1">
          <mxGeometry x="810" y="490" width="120" height="80" as="geometry" />
        </mxCell>
        <mxCell id="6QipHt0BfIRYhcp03Fun-55" value="Employee Email(STRING NOT NULL UNIQUE)" style="ellipse;whiteSpace=wrap;html=1;" vertex="1" parent="1">
          <mxGeometry x="900" y="560" width="120" height="80" as="geometry" />
        </mxCell>
        <mxCell id="6QipHt0BfIRYhcp03Fun-56" value="" style="endArrow=classic;html=1;rounded=0;exitX=0.002;exitY=0.699;exitDx=0;exitDy=0;exitPerimeter=0;entryX=1;entryY=0;entryDx=0;entryDy=0;" edge="1" parent="1" source="6QipHt0BfIRYhcp03Fun-52" target="6QipHt0BfIRYhcp03Fun-26">
          <mxGeometry width="50" height="50" relative="1" as="geometry">
            <mxPoint x="500" y="610" as="sourcePoint" />
            <mxPoint x="550" y="560" as="targetPoint" />
          </mxGeometry>
        </mxCell>
        <mxCell id="6QipHt0BfIRYhcp03Fun-57" value="" style="endArrow=classic;html=1;rounded=0;exitX=0;exitY=0.5;exitDx=0;exitDy=0;entryX=1;entryY=0.5;entryDx=0;entryDy=0;" edge="1" parent="1" source="6QipHt0BfIRYhcp03Fun-53" target="6QipHt0BfIRYhcp03Fun-26">
          <mxGeometry width="50" height="50" relative="1" as="geometry">
            <mxPoint x="500" y="610" as="sourcePoint" />
            <mxPoint x="550" y="560" as="targetPoint" />
          </mxGeometry>
        </mxCell>
        <mxCell id="6QipHt0BfIRYhcp03Fun-58" value="" style="endArrow=classic;html=1;rounded=0;entryX=1;entryY=1;entryDx=0;entryDy=0;" edge="1" parent="1" source="6QipHt0BfIRYhcp03Fun-54" target="6QipHt0BfIRYhcp03Fun-26">
          <mxGeometry width="50" height="50" relative="1" as="geometry">
            <mxPoint x="500" y="610" as="sourcePoint" />
            <mxPoint x="550" y="560" as="targetPoint" />
          </mxGeometry>
        </mxCell>
        <mxCell id="6QipHt0BfIRYhcp03Fun-59" value="" style="endArrow=classic;html=1;rounded=0;exitX=0.05;exitY=0.3;exitDx=0;exitDy=0;exitPerimeter=0;entryX=0.75;entryY=1;entryDx=0;entryDy=0;" edge="1" parent="1" source="6QipHt0BfIRYhcp03Fun-55" target="6QipHt0BfIRYhcp03Fun-26">
          <mxGeometry width="50" height="50" relative="1" as="geometry">
            <mxPoint x="500" y="610" as="sourcePoint" />
            <mxPoint x="550" y="560" as="targetPoint" />
          </mxGeometry>
        </mxCell>
        <mxCell id="6QipHt0BfIRYhcp03Fun-60" value="Employee Authentication" style="rounded=1;whiteSpace=wrap;html=1;" vertex="1" parent="1">
          <mxGeometry x="490" y="780" width="120" height="60" as="geometry" />
        </mxCell>
        <mxCell id="6QipHt0BfIRYhcp03Fun-61" value="&lt;b&gt;Employee Id(INT)(FK)&lt;/b&gt;" style="ellipse;whiteSpace=wrap;html=1;" vertex="1" parent="1">
          <mxGeometry x="710" y="810" width="120" height="80" as="geometry" />
        </mxCell>
        <mxCell id="6QipHt0BfIRYhcp03Fun-62" value="Password(BYTE ARRAY)" style="ellipse;whiteSpace=wrap;html=1;" vertex="1" parent="1">
          <mxGeometry x="670" y="900" width="120" height="80" as="geometry" />
        </mxCell>
        <mxCell id="6QipHt0BfIRYhcp03Fun-63" value="Password Hash Key(BYTE ARRAY)" style="ellipse;whiteSpace=wrap;html=1;" vertex="1" parent="1">
          <mxGeometry x="580" y="950" width="120" height="80" as="geometry" />
        </mxCell>
        <mxCell id="6QipHt0BfIRYhcp03Fun-64" value="State(STRING)" style="ellipse;whiteSpace=wrap;html=1;" vertex="1" parent="1">
          <mxGeometry x="410" y="880" width="120" height="80" as="geometry" />
        </mxCell>
        <mxCell id="6QipHt0BfIRYhcp03Fun-65" value="&quot;Active&quot;" style="ellipse;whiteSpace=wrap;html=1;" vertex="1" parent="1">
          <mxGeometry x="330" y="1000" width="120" height="80" as="geometry" />
        </mxCell>
        <mxCell id="6QipHt0BfIRYhcp03Fun-66" value="&quot;Disabled" style="ellipse;whiteSpace=wrap;html=1;" vertex="1" parent="1">
          <mxGeometry x="470" y="1020" width="120" height="80" as="geometry" />
        </mxCell>
        <mxCell id="6QipHt0BfIRYhcp03Fun-67" value="" style="endArrow=classic;html=1;rounded=0;exitX=0.371;exitY=-0.015;exitDx=0;exitDy=0;exitPerimeter=0;" edge="1" parent="1" source="6QipHt0BfIRYhcp03Fun-64" target="6QipHt0BfIRYhcp03Fun-60">
          <mxGeometry width="50" height="50" relative="1" as="geometry">
            <mxPoint x="560" y="890" as="sourcePoint" />
            <mxPoint x="610" y="840" as="targetPoint" />
          </mxGeometry>
        </mxCell>
        <mxCell id="6QipHt0BfIRYhcp03Fun-68" value="" style="endArrow=classic;html=1;rounded=0;entryX=1;entryY=0;entryDx=0;entryDy=0;" edge="1" parent="1" source="6QipHt0BfIRYhcp03Fun-61" target="6QipHt0BfIRYhcp03Fun-60">
          <mxGeometry width="50" height="50" relative="1" as="geometry">
            <mxPoint x="560" y="890" as="sourcePoint" />
            <mxPoint x="610" y="840" as="targetPoint" />
          </mxGeometry>
        </mxCell>
        <mxCell id="6QipHt0BfIRYhcp03Fun-69" value="" style="endArrow=classic;html=1;rounded=0;exitX=0;exitY=0.5;exitDx=0;exitDy=0;entryX=1;entryY=0.5;entryDx=0;entryDy=0;" edge="1" parent="1" source="6QipHt0BfIRYhcp03Fun-62" target="6QipHt0BfIRYhcp03Fun-60">
          <mxGeometry width="50" height="50" relative="1" as="geometry">
            <mxPoint x="560" y="890" as="sourcePoint" />
            <mxPoint x="610" y="840" as="targetPoint" />
          </mxGeometry>
        </mxCell>
        <mxCell id="6QipHt0BfIRYhcp03Fun-70" value="" style="endArrow=classic;html=1;rounded=0;exitX=0;exitY=0;exitDx=0;exitDy=0;" edge="1" parent="1" source="6QipHt0BfIRYhcp03Fun-63" target="6QipHt0BfIRYhcp03Fun-60">
          <mxGeometry width="50" height="50" relative="1" as="geometry">
            <mxPoint x="560" y="890" as="sourcePoint" />
            <mxPoint x="610" y="840" as="targetPoint" />
          </mxGeometry>
        </mxCell>
        <mxCell id="6QipHt0BfIRYhcp03Fun-71" value="" style="endArrow=classic;html=1;rounded=0;entryX=0.5;entryY=0;entryDx=0;entryDy=0;" edge="1" parent="1" source="6QipHt0BfIRYhcp03Fun-64" target="6QipHt0BfIRYhcp03Fun-65">
          <mxGeometry width="50" height="50" relative="1" as="geometry">
            <mxPoint x="560" y="890" as="sourcePoint" />
            <mxPoint x="610" y="840" as="targetPoint" />
          </mxGeometry>
        </mxCell>
        <mxCell id="6QipHt0BfIRYhcp03Fun-72" value="" style="endArrow=classic;html=1;rounded=0;exitX=1;exitY=1;exitDx=0;exitDy=0;" edge="1" parent="1" source="6QipHt0BfIRYhcp03Fun-64" target="6QipHt0BfIRYhcp03Fun-66">
          <mxGeometry width="50" height="50" relative="1" as="geometry">
            <mxPoint x="560" y="890" as="sourcePoint" />
            <mxPoint x="610" y="840" as="targetPoint" />
          </mxGeometry>
        </mxCell>
        <mxCell id="6QipHt0BfIRYhcp03Fun-73" value="HAS" style="rhombus;whiteSpace=wrap;html=1;" vertex="1" parent="1">
          <mxGeometry x="550" y="620" width="80" height="80" as="geometry" />
        </mxCell>
        <mxCell id="6QipHt0BfIRYhcp03Fun-76" value="&lt;b&gt;1&lt;/b&gt;" style="text;html=1;align=center;verticalAlign=middle;whiteSpace=wrap;rounded=0;" vertex="1" parent="1">
          <mxGeometry x="550" y="560" width="60" height="30" as="geometry" />
        </mxCell>
        <mxCell id="6QipHt0BfIRYhcp03Fun-77" value="&lt;b&gt;1&lt;/b&gt;" style="text;html=1;align=center;verticalAlign=middle;whiteSpace=wrap;rounded=0;" vertex="1" parent="1">
          <mxGeometry x="510" y="730" width="60" height="30" as="geometry" />
        </mxCell>
        <mxCell id="6QipHt0BfIRYhcp03Fun-78" value="Items" style="rounded=1;whiteSpace=wrap;html=1;" vertex="1" parent="1">
          <mxGeometry x="200" y="390" width="120" height="60" as="geometry" />
        </mxCell>
        <mxCell id="6QipHt0BfIRYhcp03Fun-79" value="Role(STRING NOT NULL)" style="ellipse;whiteSpace=wrap;html=1;" vertex="1" parent="1">
          <mxGeometry x="810" y="640" width="120" height="80" as="geometry" />
        </mxCell>
        <mxCell id="6QipHt0BfIRYhcp03Fun-81" value="" style="endArrow=classic;html=1;rounded=0;entryX=0.605;entryY=1.043;entryDx=0;entryDy=0;entryPerimeter=0;" edge="1" parent="1" source="6QipHt0BfIRYhcp03Fun-79" target="6QipHt0BfIRYhcp03Fun-26">
          <mxGeometry width="50" height="50" relative="1" as="geometry">
            <mxPoint x="380" y="770" as="sourcePoint" />
            <mxPoint x="430" y="720" as="targetPoint" />
          </mxGeometry>
        </mxCell>
        <mxCell id="6QipHt0BfIRYhcp03Fun-82" value="&quot;Manager&quot;" style="ellipse;whiteSpace=wrap;html=1;" vertex="1" parent="1">
          <mxGeometry x="970" y="660" width="120" height="80" as="geometry" />
        </mxCell>
        <mxCell id="6QipHt0BfIRYhcp03Fun-83" value="&quot;Barista&quot;" style="ellipse;whiteSpace=wrap;html=1;" vertex="1" parent="1">
          <mxGeometry x="910" y="750" width="120" height="80" as="geometry" />
        </mxCell>
        <mxCell id="6QipHt0BfIRYhcp03Fun-84" value="" style="endArrow=classic;html=1;rounded=0;exitX=0.318;exitY=1.018;exitDx=0;exitDy=0;exitPerimeter=0;" edge="1" parent="1" source="6QipHt0BfIRYhcp03Fun-79" target="6QipHt0BfIRYhcp03Fun-83">
          <mxGeometry width="50" height="50" relative="1" as="geometry">
            <mxPoint x="380" y="770" as="sourcePoint" />
            <mxPoint x="430" y="720" as="targetPoint" />
          </mxGeometry>
        </mxCell>
        <mxCell id="6QipHt0BfIRYhcp03Fun-86" value="" style="endArrow=classic;html=1;rounded=0;exitX=1;exitY=0.5;exitDx=0;exitDy=0;entryX=0.031;entryY=0.671;entryDx=0;entryDy=0;entryPerimeter=0;" edge="1" parent="1" source="6QipHt0BfIRYhcp03Fun-79" target="6QipHt0BfIRYhcp03Fun-82">
          <mxGeometry width="50" height="50" relative="1" as="geometry">
            <mxPoint x="858" y="731" as="sourcePoint" />
            <mxPoint x="934" y="774" as="targetPoint" />
          </mxGeometry>
        </mxCell>
        <mxCell id="6QipHt0BfIRYhcp03Fun-87" value="&lt;b&gt;Item Id(INT)(PK)&lt;/b&gt;" style="ellipse;whiteSpace=wrap;html=1;" vertex="1" parent="1">
          <mxGeometry x="-320" y="290" width="120" height="80" as="geometry" />
        </mxCell>
        <mxCell id="6QipHt0BfIRYhcp03Fun-88" value="Item Name(STRING NOT NULL UNIQUE)" style="ellipse;whiteSpace=wrap;html=1;" vertex="1" parent="1">
          <mxGeometry x="-330" y="410" width="120" height="80" as="geometry" />
        </mxCell>
        <mxCell id="6QipHt0BfIRYhcp03Fun-89" value="Item Description(STRING)" style="ellipse;whiteSpace=wrap;html=1;" vertex="1" parent="1">
          <mxGeometry x="-240" y="600" width="120" height="80" as="geometry" />
        </mxCell>
        <mxCell id="6QipHt0BfIRYhcp03Fun-90" value="&lt;b&gt;Type Id(INT)(FK)&lt;/b&gt;" style="ellipse;whiteSpace=wrap;html=1;" vertex="1" parent="1">
          <mxGeometry x="-320" y="510" width="120" height="80" as="geometry" />
        </mxCell>
        <mxCell id="6QipHt0BfIRYhcp03Fun-91" value="Item Type" style="rounded=1;whiteSpace=wrap;html=1;" vertex="1" parent="1">
          <mxGeometry x="190" y="660" width="120" height="60" as="geometry" />
        </mxCell>
        <mxCell id="6QipHt0BfIRYhcp03Fun-92" value="&lt;b&gt;Type Id(INT)(PK)&lt;/b&gt;" style="ellipse;whiteSpace=wrap;html=1;" vertex="1" parent="1">
          <mxGeometry x="170" y="830" width="120" height="80" as="geometry" />
        </mxCell>
        <mxCell id="6QipHt0BfIRYhcp03Fun-93" value="Type Name(STRING NOT NULL)" style="ellipse;whiteSpace=wrap;html=1;" vertex="1" parent="1">
          <mxGeometry x="30" y="790" width="120" height="80" as="geometry" />
        </mxCell>
        <mxCell id="6QipHt0BfIRYhcp03Fun-94" value="IsAvailable (BOOL)" style="ellipse;whiteSpace=wrap;html=1;" vertex="1" parent="1">
          <mxGeometry x="-180" y="680" width="120" height="80" as="geometry" />
        </mxCell>
        <mxCell id="6QipHt0BfIRYhcp03Fun-95" value="" style="endArrow=classic;html=1;rounded=0;exitX=1;exitY=1;exitDx=0;exitDy=0;entryX=0;entryY=0.25;entryDx=0;entryDy=0;" edge="1" parent="1" source="6QipHt0BfIRYhcp03Fun-87" target="6QipHt0BfIRYhcp03Fun-78">
          <mxGeometry width="50" height="50" relative="1" as="geometry">
            <mxPoint x="380" y="650" as="sourcePoint" />
            <mxPoint x="430" y="600" as="targetPoint" />
          </mxGeometry>
        </mxCell>
        <mxCell id="6QipHt0BfIRYhcp03Fun-96" value="" style="endArrow=classic;html=1;rounded=0;exitX=1;exitY=0.5;exitDx=0;exitDy=0;entryX=0;entryY=0.75;entryDx=0;entryDy=0;" edge="1" parent="1" source="6QipHt0BfIRYhcp03Fun-90" target="6QipHt0BfIRYhcp03Fun-78">
          <mxGeometry width="50" height="50" relative="1" as="geometry">
            <mxPoint x="380" y="650" as="sourcePoint" />
            <mxPoint x="430" y="600" as="targetPoint" />
          </mxGeometry>
        </mxCell>
        <mxCell id="6QipHt0BfIRYhcp03Fun-97" value="" style="endArrow=classic;html=1;rounded=0;entryX=0;entryY=0.5;entryDx=0;entryDy=0;entryPerimeter=0;" edge="1" parent="1" source="6QipHt0BfIRYhcp03Fun-88" target="6QipHt0BfIRYhcp03Fun-78">
          <mxGeometry width="50" height="50" relative="1" as="geometry">
            <mxPoint x="380" y="650" as="sourcePoint" />
            <mxPoint x="430" y="600" as="targetPoint" />
          </mxGeometry>
        </mxCell>
        <mxCell id="6QipHt0BfIRYhcp03Fun-98" value="" style="endArrow=classic;html=1;rounded=0;" edge="1" parent="1" source="6QipHt0BfIRYhcp03Fun-89" target="6QipHt0BfIRYhcp03Fun-78">
          <mxGeometry width="50" height="50" relative="1" as="geometry">
            <mxPoint x="380" y="650" as="sourcePoint" />
            <mxPoint x="430" y="600" as="targetPoint" />
          </mxGeometry>
        </mxCell>
        <mxCell id="6QipHt0BfIRYhcp03Fun-99" value="" style="endArrow=classic;html=1;rounded=0;exitX=1;exitY=0;exitDx=0;exitDy=0;entryX=0.25;entryY=1;entryDx=0;entryDy=0;" edge="1" parent="1" source="6QipHt0BfIRYhcp03Fun-94" target="6QipHt0BfIRYhcp03Fun-78">
          <mxGeometry width="50" height="50" relative="1" as="geometry">
            <mxPoint x="380" y="650" as="sourcePoint" />
            <mxPoint x="430" y="600" as="targetPoint" />
          </mxGeometry>
        </mxCell>
        <mxCell id="6QipHt0BfIRYhcp03Fun-100" value="" style="endArrow=classic;html=1;rounded=0;exitX=1;exitY=0;exitDx=0;exitDy=0;entryX=0;entryY=1;entryDx=0;entryDy=0;" edge="1" parent="1" source="6QipHt0BfIRYhcp03Fun-93" target="6QipHt0BfIRYhcp03Fun-91">
          <mxGeometry width="50" height="50" relative="1" as="geometry">
            <mxPoint x="380" y="650" as="sourcePoint" />
            <mxPoint x="430" y="600" as="targetPoint" />
          </mxGeometry>
        </mxCell>
        <mxCell id="6QipHt0BfIRYhcp03Fun-101" value="" style="endArrow=classic;html=1;rounded=0;exitX=0.401;exitY=0.046;exitDx=0;exitDy=0;exitPerimeter=0;entryX=0.5;entryY=1;entryDx=0;entryDy=0;" edge="1" parent="1" source="6QipHt0BfIRYhcp03Fun-92" target="6QipHt0BfIRYhcp03Fun-91">
          <mxGeometry width="50" height="50" relative="1" as="geometry">
            <mxPoint x="380" y="650" as="sourcePoint" />
            <mxPoint x="430" y="600" as="targetPoint" />
          </mxGeometry>
        </mxCell>
        <mxCell id="6QipHt0BfIRYhcp03Fun-102" value="HAS" style="rhombus;whiteSpace=wrap;html=1;" vertex="1" parent="1">
          <mxGeometry x="220" y="520" width="80" height="80" as="geometry" />
        </mxCell>
        <mxCell id="6QipHt0BfIRYhcp03Fun-103" value="" style="endArrow=classic;html=1;rounded=0;exitX=0.5;exitY=1;exitDx=0;exitDy=0;entryX=0.5;entryY=0;entryDx=0;entryDy=0;" edge="1" parent="1" source="6QipHt0BfIRYhcp03Fun-78" target="6QipHt0BfIRYhcp03Fun-102">
          <mxGeometry width="50" height="50" relative="1" as="geometry">
            <mxPoint x="380" y="650" as="sourcePoint" />
            <mxPoint x="430" y="600" as="targetPoint" />
          </mxGeometry>
        </mxCell>
        <mxCell id="6QipHt0BfIRYhcp03Fun-104" value="" style="endArrow=classic;html=1;rounded=0;exitX=0.5;exitY=1;exitDx=0;exitDy=0;entryX=0.5;entryY=0;entryDx=0;entryDy=0;" edge="1" parent="1" source="6QipHt0BfIRYhcp03Fun-102" target="6QipHt0BfIRYhcp03Fun-91">
          <mxGeometry width="50" height="50" relative="1" as="geometry">
            <mxPoint x="380" y="810" as="sourcePoint" />
            <mxPoint x="430" y="760" as="targetPoint" />
          </mxGeometry>
        </mxCell>
        <mxCell id="6QipHt0BfIRYhcp03Fun-105" value="&lt;b&gt;1&lt;/b&gt;" style="text;html=1;align=center;verticalAlign=middle;whiteSpace=wrap;rounded=0;" vertex="1" parent="1">
          <mxGeometry x="240" y="630" width="60" height="30" as="geometry" />
        </mxCell>
        <mxCell id="6QipHt0BfIRYhcp03Fun-106" value="&lt;b&gt;N&lt;/b&gt;" style="text;html=1;align=center;verticalAlign=middle;whiteSpace=wrap;rounded=0;" vertex="1" parent="1">
          <mxGeometry x="250" y="460" width="60" height="30" as="geometry" />
        </mxCell>
        <mxCell id="6QipHt0BfIRYhcp03Fun-107" value="Orders" style="rounded=1;whiteSpace=wrap;html=1;" vertex="1" parent="1">
          <mxGeometry x="390" y="-490" width="120" height="60" as="geometry" />
        </mxCell>
        <mxCell id="6QipHt0BfIRYhcp03Fun-108" value="&lt;b&gt;Order ID(INT)(PK)&lt;/b&gt;" style="ellipse;whiteSpace=wrap;html=1;" vertex="1" parent="1">
          <mxGeometry x="260" y="-610" width="120" height="80" as="geometry" />
        </mxCell>
        <mxCell id="6QipHt0BfIRYhcp03Fun-109" value="&lt;b&gt;User ID(INT)(FK)&lt;/b&gt;" style="ellipse;whiteSpace=wrap;html=1;" vertex="1" parent="1">
          <mxGeometry x="400" y="-610" width="120" height="80" as="geometry" />
        </mxCell>
        <mxCell id="6QipHt0BfIRYhcp03Fun-110" value="Order Status(String)" style="ellipse;whiteSpace=wrap;html=1;" vertex="1" parent="1">
          <mxGeometry x="540" y="-610" width="120" height="80" as="geometry" />
        </mxCell>
        <mxCell id="6QipHt0BfIRYhcp03Fun-111" value="&quot;Pending&quot;" style="ellipse;whiteSpace=wrap;html=1;" vertex="1" parent="1">
          <mxGeometry x="560" y="-750" width="120" height="80" as="geometry" />
        </mxCell>
        <mxCell id="6QipHt0BfIRYhcp03Fun-112" value="&quot;Completed&quot;" style="ellipse;whiteSpace=wrap;html=1;" vertex="1" parent="1">
          <mxGeometry x="700" y="-740" width="120" height="80" as="geometry" />
        </mxCell>
        <mxCell id="6QipHt0BfIRYhcp03Fun-113" value="&quot;CancelledByUser&quot;" style="ellipse;whiteSpace=wrap;html=1;" vertex="1" parent="1">
          <mxGeometry x="760" y="-660" width="120" height="80" as="geometry" />
        </mxCell>
        <mxCell id="6QipHt0BfIRYhcp03Fun-114" value="&quot;CancelledByManager&quot;" style="ellipse;whiteSpace=wrap;html=1;" vertex="1" parent="1">
          <mxGeometry x="730" y="-570" width="160" height="80" as="geometry" />
        </mxCell>
        <mxCell id="6QipHt0BfIRYhcp03Fun-116" value="Total Amount(DOUBLE)" style="ellipse;whiteSpace=wrap;html=1;" vertex="1" parent="1">
          <mxGeometry x="550" y="-500" width="120" height="80" as="geometry" />
        </mxCell>
        <mxCell id="6QipHt0BfIRYhcp03Fun-118" value="" style="endArrow=classic;html=1;rounded=0;exitX=0.669;exitY=1.018;exitDx=0;exitDy=0;exitPerimeter=0;entryX=0;entryY=0;entryDx=0;entryDy=0;" edge="1" parent="1" source="6QipHt0BfIRYhcp03Fun-108" target="6QipHt0BfIRYhcp03Fun-107">
          <mxGeometry width="50" height="50" relative="1" as="geometry">
            <mxPoint x="380" y="-430" as="sourcePoint" />
            <mxPoint x="430" y="-480" as="targetPoint" />
          </mxGeometry>
        </mxCell>
        <mxCell id="6QipHt0BfIRYhcp03Fun-119" value="" style="endArrow=classic;html=1;rounded=0;entryX=0.5;entryY=0;entryDx=0;entryDy=0;" edge="1" parent="1" source="6QipHt0BfIRYhcp03Fun-109" target="6QipHt0BfIRYhcp03Fun-107">
          <mxGeometry width="50" height="50" relative="1" as="geometry">
            <mxPoint x="380" y="-430" as="sourcePoint" />
            <mxPoint x="430" y="-480" as="targetPoint" />
          </mxGeometry>
        </mxCell>
        <mxCell id="6QipHt0BfIRYhcp03Fun-120" value="" style="endArrow=classic;html=1;rounded=0;exitX=0;exitY=1;exitDx=0;exitDy=0;entryX=0.75;entryY=0;entryDx=0;entryDy=0;" edge="1" parent="1" source="6QipHt0BfIRYhcp03Fun-110" target="6QipHt0BfIRYhcp03Fun-107">
          <mxGeometry width="50" height="50" relative="1" as="geometry">
            <mxPoint x="380" y="-430" as="sourcePoint" />
            <mxPoint x="430" y="-480" as="targetPoint" />
          </mxGeometry>
        </mxCell>
        <mxCell id="6QipHt0BfIRYhcp03Fun-121" value="" style="endArrow=classic;html=1;rounded=0;exitX=0;exitY=1;exitDx=0;exitDy=0;entryX=1;entryY=0.75;entryDx=0;entryDy=0;" edge="1" parent="1" source="6QipHt0BfIRYhcp03Fun-116" target="6QipHt0BfIRYhcp03Fun-107">
          <mxGeometry width="50" height="50" relative="1" as="geometry">
            <mxPoint x="380" y="-430" as="sourcePoint" />
            <mxPoint x="430" y="-480" as="targetPoint" />
          </mxGeometry>
        </mxCell>
        <mxCell id="6QipHt0BfIRYhcp03Fun-122" value="" style="endArrow=classic;html=1;rounded=0;exitX=0.5;exitY=0;exitDx=0;exitDy=0;entryX=0.373;entryY=1.018;entryDx=0;entryDy=0;entryPerimeter=0;" edge="1" parent="1" source="6QipHt0BfIRYhcp03Fun-110" target="6QipHt0BfIRYhcp03Fun-111">
          <mxGeometry width="50" height="50" relative="1" as="geometry">
            <mxPoint x="380" y="-430" as="sourcePoint" />
            <mxPoint x="430" y="-480" as="targetPoint" />
          </mxGeometry>
        </mxCell>
        <mxCell id="6QipHt0BfIRYhcp03Fun-123" value="" style="endArrow=classic;html=1;rounded=0;exitX=1;exitY=0;exitDx=0;exitDy=0;" edge="1" parent="1" source="6QipHt0BfIRYhcp03Fun-110" target="6QipHt0BfIRYhcp03Fun-112">
          <mxGeometry width="50" height="50" relative="1" as="geometry">
            <mxPoint x="380" y="-430" as="sourcePoint" />
            <mxPoint x="430" y="-480" as="targetPoint" />
          </mxGeometry>
        </mxCell>
        <mxCell id="6QipHt0BfIRYhcp03Fun-124" value="" style="endArrow=classic;html=1;rounded=0;exitX=1;exitY=0.5;exitDx=0;exitDy=0;entryX=0;entryY=0.5;entryDx=0;entryDy=0;" edge="1" parent="1" source="6QipHt0BfIRYhcp03Fun-110" target="6QipHt0BfIRYhcp03Fun-113">
          <mxGeometry width="50" height="50" relative="1" as="geometry">
            <mxPoint x="380" y="-430" as="sourcePoint" />
            <mxPoint x="430" y="-480" as="targetPoint" />
          </mxGeometry>
        </mxCell>
        <mxCell id="6QipHt0BfIRYhcp03Fun-125" value="" style="endArrow=classic;html=1;rounded=0;exitX=1;exitY=1;exitDx=0;exitDy=0;entryX=0;entryY=0.5;entryDx=0;entryDy=0;" edge="1" parent="1" source="6QipHt0BfIRYhcp03Fun-110" target="6QipHt0BfIRYhcp03Fun-114">
          <mxGeometry width="50" height="50" relative="1" as="geometry">
            <mxPoint x="380" y="-430" as="sourcePoint" />
            <mxPoint x="430" y="-480" as="targetPoint" />
          </mxGeometry>
        </mxCell>
        <mxCell id="6QipHt0BfIRYhcp03Fun-126" value="ORDEREDBY" style="rhombus;whiteSpace=wrap;html=1;" vertex="1" parent="1">
          <mxGeometry x="430" y="-270" width="100" height="80" as="geometry" />
        </mxCell>
        <mxCell id="6QipHt0BfIRYhcp03Fun-129" value="&lt;b&gt;N&lt;/b&gt;" style="text;html=1;align=center;verticalAlign=middle;whiteSpace=wrap;rounded=0;" vertex="1" parent="1">
          <mxGeometry x="500" y="140" width="60" height="30" as="geometry" />
        </mxCell>
        <mxCell id="6QipHt0BfIRYhcp03Fun-133" value="&lt;b&gt;N&lt;/b&gt;" style="text;html=1;align=center;verticalAlign=middle;whiteSpace=wrap;rounded=0;" vertex="1" parent="1">
          <mxGeometry x="400" y="-410" width="60" height="30" as="geometry" />
        </mxCell>
        <mxCell id="6QipHt0BfIRYhcp03Fun-135" value="Order Items" style="rounded=1;whiteSpace=wrap;html=1;" vertex="1" parent="1">
          <mxGeometry x="-130" y="-530" width="120" height="60" as="geometry" />
        </mxCell>
        <mxCell id="6QipHt0BfIRYhcp03Fun-136" value="&lt;b&gt;Item ID(INT)(FK)&lt;/b&gt;" style="ellipse;whiteSpace=wrap;html=1;" vertex="1" parent="1">
          <mxGeometry x="-350" y="-670" width="120" height="80" as="geometry" />
        </mxCell>
        <mxCell id="6QipHt0BfIRYhcp03Fun-137" value="&lt;b&gt;Order Id(INT)(FK)&lt;/b&gt;" style="ellipse;whiteSpace=wrap;html=1;" vertex="1" parent="1">
          <mxGeometry x="-220" y="-670" width="120" height="80" as="geometry" />
        </mxCell>
        <mxCell id="6QipHt0BfIRYhcp03Fun-138" value="Qty(INT)" style="ellipse;whiteSpace=wrap;html=1;" vertex="1" parent="1">
          <mxGeometry x="-90" y="-680" width="120" height="80" as="geometry" />
        </mxCell>
        <mxCell id="6QipHt0BfIRYhcp03Fun-140" value="Price(DOUBLE)" style="ellipse;whiteSpace=wrap;html=1;" vertex="1" parent="1">
          <mxGeometry x="-50" y="670" width="120" height="80" as="geometry" />
        </mxCell>
        <mxCell id="6QipHt0BfIRYhcp03Fun-141" value="" style="endArrow=classic;html=1;rounded=0;exitX=1;exitY=0;exitDx=0;exitDy=0;entryX=0.369;entryY=0.998;entryDx=0;entryDy=0;entryPerimeter=0;" edge="1" parent="1" source="6QipHt0BfIRYhcp03Fun-140" target="6QipHt0BfIRYhcp03Fun-78">
          <mxGeometry width="50" height="50" relative="1" as="geometry">
            <mxPoint x="210" y="530" as="sourcePoint" />
            <mxPoint x="260" y="480" as="targetPoint" />
          </mxGeometry>
        </mxCell>
        <mxCell id="6QipHt0BfIRYhcp03Fun-142" value="" style="endArrow=classic;html=1;rounded=0;entryX=0;entryY=0.25;entryDx=0;entryDy=0;" edge="1" parent="1" source="6QipHt0BfIRYhcp03Fun-136" target="6QipHt0BfIRYhcp03Fun-135">
          <mxGeometry width="50" height="50" relative="1" as="geometry">
            <mxPoint x="210" y="-300" as="sourcePoint" />
            <mxPoint x="260" y="-350" as="targetPoint" />
          </mxGeometry>
        </mxCell>
        <mxCell id="6QipHt0BfIRYhcp03Fun-143" value="" style="endArrow=classic;html=1;rounded=0;exitX=0.669;exitY=1.004;exitDx=0;exitDy=0;exitPerimeter=0;entryX=0.25;entryY=0;entryDx=0;entryDy=0;" edge="1" parent="1" source="6QipHt0BfIRYhcp03Fun-137" target="6QipHt0BfIRYhcp03Fun-135">
          <mxGeometry width="50" height="50" relative="1" as="geometry">
            <mxPoint x="210" y="-300" as="sourcePoint" />
            <mxPoint x="260" y="-350" as="targetPoint" />
          </mxGeometry>
        </mxCell>
        <mxCell id="6QipHt0BfIRYhcp03Fun-144" value="" style="endArrow=classic;html=1;rounded=0;exitX=0.5;exitY=1;exitDx=0;exitDy=0;entryX=0.5;entryY=0;entryDx=0;entryDy=0;" edge="1" parent="1" source="6QipHt0BfIRYhcp03Fun-138" target="6QipHt0BfIRYhcp03Fun-135">
          <mxGeometry width="50" height="50" relative="1" as="geometry">
            <mxPoint x="210" y="-300" as="sourcePoint" />
            <mxPoint x="260" y="-350" as="targetPoint" />
          </mxGeometry>
        </mxCell>
        <mxCell id="6QipHt0BfIRYhcp03Fun-145" value="CONTAINS" style="rhombus;whiteSpace=wrap;html=1;" vertex="1" parent="1">
          <mxGeometry x="-260" y="150" width="80" height="80" as="geometry" />
        </mxCell>
        <mxCell id="6QipHt0BfIRYhcp03Fun-146" value="" style="endArrow=classic;html=1;rounded=0;exitX=0.5;exitY=1;exitDx=0;exitDy=0;entryX=0.5;entryY=0;entryDx=0;entryDy=0;" edge="1" parent="1" source="6QipHt0BfIRYhcp03Fun-135" target="6QipHt0BfIRYhcp03Fun-145">
          <mxGeometry width="50" height="50" relative="1" as="geometry">
            <mxPoint x="380" y="100" as="sourcePoint" />
            <mxPoint x="430" y="50" as="targetPoint" />
          </mxGeometry>
        </mxCell>
        <mxCell id="6QipHt0BfIRYhcp03Fun-147" value="" style="endArrow=classic;html=1;rounded=0;exitX=0.5;exitY=1;exitDx=0;exitDy=0;entryX=0;entryY=0;entryDx=0;entryDy=0;" edge="1" parent="1" source="6QipHt0BfIRYhcp03Fun-145" target="6QipHt0BfIRYhcp03Fun-78">
          <mxGeometry width="50" height="50" relative="1" as="geometry">
            <mxPoint x="380" y="100" as="sourcePoint" />
            <mxPoint x="430" y="50" as="targetPoint" />
          </mxGeometry>
        </mxCell>
        <mxCell id="6QipHt0BfIRYhcp03Fun-149" value="&lt;b&gt;N&lt;/b&gt;" style="text;html=1;align=center;verticalAlign=middle;whiteSpace=wrap;rounded=0;" vertex="1" parent="1">
          <mxGeometry x="-80" y="-470" width="60" height="30" as="geometry" />
        </mxCell>
        <mxCell id="6QipHt0BfIRYhcp03Fun-150" value="&lt;b&gt;N&lt;/b&gt;" style="text;html=1;align=center;verticalAlign=middle;whiteSpace=wrap;rounded=0;" vertex="1" parent="1">
          <mxGeometry x="160" y="350" width="60" height="30" as="geometry" />
        </mxCell>
        <mxCell id="6QipHt0BfIRYhcp03Fun-154" value="CONTAINS" style="rhombus;whiteSpace=wrap;html=1;" vertex="1" parent="1">
          <mxGeometry x="150" y="-530" width="80" height="80" as="geometry" />
        </mxCell>
        <mxCell id="6QipHt0BfIRYhcp03Fun-157" value="" style="endArrow=classic;html=1;rounded=0;exitX=1;exitY=0.5;exitDx=0;exitDy=0;entryX=0;entryY=0.5;entryDx=0;entryDy=0;" edge="1" parent="1" source="6QipHt0BfIRYhcp03Fun-135" target="6QipHt0BfIRYhcp03Fun-154">
          <mxGeometry width="50" height="50" relative="1" as="geometry">
            <mxPoint x="250" y="-370" as="sourcePoint" />
            <mxPoint x="300" y="-420" as="targetPoint" />
          </mxGeometry>
        </mxCell>
        <mxCell id="6QipHt0BfIRYhcp03Fun-158" value="" style="endArrow=classic;html=1;rounded=0;exitX=1;exitY=0.5;exitDx=0;exitDy=0;entryX=0;entryY=0.5;entryDx=0;entryDy=0;" edge="1" parent="1" source="6QipHt0BfIRYhcp03Fun-154" target="6QipHt0BfIRYhcp03Fun-107">
          <mxGeometry width="50" height="50" relative="1" as="geometry">
            <mxPoint x="250" y="-370" as="sourcePoint" />
            <mxPoint x="300" y="-420" as="targetPoint" />
          </mxGeometry>
        </mxCell>
        <mxCell id="6QipHt0BfIRYhcp03Fun-159" value="" style="endArrow=classic;html=1;rounded=0;exitX=0.25;exitY=0;exitDx=0;exitDy=0;entryX=0.5;entryY=0;entryDx=0;entryDy=0;" edge="1" parent="1" source="6QipHt0BfIRYhcp03Fun-31" target="6QipHt0BfIRYhcp03Fun-27">
          <mxGeometry width="50" height="50" relative="1" as="geometry">
            <mxPoint x="250" y="-40" as="sourcePoint" />
            <mxPoint x="300" y="-90" as="targetPoint" />
          </mxGeometry>
        </mxCell>
        <mxCell id="6QipHt0BfIRYhcp03Fun-160" value="" style="endArrow=classic;html=1;rounded=0;exitX=0.5;exitY=1;exitDx=0;exitDy=0;" edge="1" parent="1" source="6QipHt0BfIRYhcp03Fun-27" target="6QipHt0BfIRYhcp03Fun-1">
          <mxGeometry width="50" height="50" relative="1" as="geometry">
            <mxPoint x="250" y="-40" as="sourcePoint" />
            <mxPoint x="300" y="-90" as="targetPoint" />
          </mxGeometry>
        </mxCell>
        <mxCell id="6QipHt0BfIRYhcp03Fun-161" value="" style="endArrow=classic;html=1;rounded=0;exitX=0.5;exitY=1;exitDx=0;exitDy=0;entryX=0.5;entryY=0;entryDx=0;entryDy=0;" edge="1" parent="1" source="6QipHt0BfIRYhcp03Fun-32" target="6QipHt0BfIRYhcp03Fun-39">
          <mxGeometry width="50" height="50" relative="1" as="geometry">
            <mxPoint x="510" y="-50" as="sourcePoint" />
            <mxPoint x="560" y="-100" as="targetPoint" />
          </mxGeometry>
        </mxCell>
        <mxCell id="6QipHt0BfIRYhcp03Fun-162" value="" style="endArrow=classic;html=1;rounded=0;exitX=0.5;exitY=1;exitDx=0;exitDy=0;entryX=0.25;entryY=1;entryDx=0;entryDy=0;" edge="1" parent="1" source="6QipHt0BfIRYhcp03Fun-39" target="6QipHt0BfIRYhcp03Fun-44">
          <mxGeometry width="50" height="50" relative="1" as="geometry">
            <mxPoint x="510" y="-50" as="sourcePoint" />
            <mxPoint x="560" y="-100" as="targetPoint" />
          </mxGeometry>
        </mxCell>
        <mxCell id="6QipHt0BfIRYhcp03Fun-163" value="" style="endArrow=classic;html=1;rounded=0;exitX=0.5;exitY=1;exitDx=0;exitDy=0;entryX=0.5;entryY=0;entryDx=0;entryDy=0;" edge="1" parent="1" source="6QipHt0BfIRYhcp03Fun-107" target="6QipHt0BfIRYhcp03Fun-126">
          <mxGeometry width="50" height="50" relative="1" as="geometry">
            <mxPoint x="450" y="-220" as="sourcePoint" />
            <mxPoint x="500" y="-270" as="targetPoint" />
          </mxGeometry>
        </mxCell>
        <mxCell id="6QipHt0BfIRYhcp03Fun-164" value="" style="endArrow=classic;html=1;rounded=0;exitX=0.5;exitY=1;exitDx=0;exitDy=0;entryX=1;entryY=1;entryDx=0;entryDy=0;" edge="1" parent="1" source="6QipHt0BfIRYhcp03Fun-126" target="6QipHt0BfIRYhcp03Fun-129">
          <mxGeometry width="50" height="50" relative="1" as="geometry">
            <mxPoint x="450" y="-50" as="sourcePoint" />
            <mxPoint x="500" y="-100" as="targetPoint" />
          </mxGeometry>
        </mxCell>
        <mxCell id="6QipHt0BfIRYhcp03Fun-165" value="" style="endArrow=classic;html=1;rounded=0;exitX=0.5;exitY=0;exitDx=0;exitDy=0;entryX=0.5;entryY=1;entryDx=0;entryDy=0;" edge="1" parent="1" source="6QipHt0BfIRYhcp03Fun-60" target="6QipHt0BfIRYhcp03Fun-73">
          <mxGeometry width="50" height="50" relative="1" as="geometry">
            <mxPoint x="450" y="620" as="sourcePoint" />
            <mxPoint x="500" y="570" as="targetPoint" />
          </mxGeometry>
        </mxCell>
        <mxCell id="6QipHt0BfIRYhcp03Fun-168" value="" style="endArrow=classic;html=1;rounded=0;exitX=0.5;exitY=0;exitDx=0;exitDy=0;entryX=0.5;entryY=1;entryDx=0;entryDy=0;" edge="1" parent="1" source="6QipHt0BfIRYhcp03Fun-73" target="6QipHt0BfIRYhcp03Fun-26">
          <mxGeometry width="50" height="50" relative="1" as="geometry">
            <mxPoint x="450" y="620" as="sourcePoint" />
            <mxPoint x="500" y="570" as="targetPoint" />
          </mxGeometry>
        </mxCell>
      </root>
    </mxGraphModel>
  </diagram>
</mxfile>
